<svg width="40" height="40" viewBox="0 0 40 40" fill="none" xmlns="http://www.w3.org/2000/svg">
<circle cx="20" cy="20" r="20" fill="white"/>
<path d="M16.269 32.2148C17.1824 32.2148 17.9228 31.4473 17.9228 30.5005C17.9228 29.5538 17.1824 28.7863 16.269 28.7863C15.3557 28.7863 14.6152 29.5538 14.6152 30.5005C14.6152 31.4473 15.3557 32.2148 16.269 32.2148Z" fill="#555454"/>
<path d="M27.8454 32.2148C28.7588 32.2148 29.4992 31.4473 29.4992 30.5005C29.4992 29.5538 28.7588 28.7863 27.8454 28.7863C26.9321 28.7863 26.1917 29.5538 26.1917 30.5005C26.1917 31.4473 26.9321 32.2148 27.8454 32.2148Z" fill="#555454"/>
<path d="M31.1528 12.5007H12.8125L12.1344 8.9007C12.0958 8.70418 11.9919 8.52793 11.8408 8.40264C11.6897 8.27735 11.501 8.21094 11.3075 8.21499H8V9.92926H10.6295L13.7882 26.3863C13.8269 26.5828 13.9308 26.759 14.0819 26.8843C14.2329 27.0096 14.4216 27.076 14.6151 27.072H29.499V25.3577H15.2931L14.6151 21.9292H29.499C29.6902 21.934 29.877 21.87 30.0278 21.7481C30.1786 21.6262 30.2839 21.454 30.3259 21.2606L31.9797 13.5464C32.0074 13.4192 32.0067 13.2871 31.9778 13.1603C31.9488 13.0334 31.8924 12.915 31.8126 12.8142C31.7329 12.7133 31.632 12.6327 31.5177 12.5784C31.4033 12.524 31.2785 12.4975 31.1528 12.5007ZM28.8375 20.2149H14.3009L13.1432 14.2149H30.1192L28.8375 20.2149Z" fill="#555454"/>
</svg>
