<svg width="40" height="40" viewBox="0 0 40 40" fill="none" xmlns="http://www.w3.org/2000/svg">
<circle cx="20" cy="20" r="20" fill="white"/>
<path d="M25.6143 23.5735C27.0668 21.5913 27.7173 19.1338 27.4358 16.6925C27.1543 14.2513 25.9615 12.0063 24.096 10.4069C22.2305 8.80738 19.83 7.97132 17.3746 8.06594C14.9192 8.16056 12.5901 9.17888 10.8532 10.9172C9.11637 12.6555 8.09982 14.9856 8.00697 17.4412C7.91412 19.8969 8.75181 22.2971 10.3525 24.1616C11.9531 26.0262 14.1987 27.2175 16.6399 27.4973C19.0811 27.7771 21.5379 27.1247 23.5188 25.6707H23.5173C23.5623 25.7307 23.6103 25.7878 23.6643 25.8433L29.4393 31.6189C29.7206 31.9003 30.1022 32.0586 30.5001 32.0587C30.898 32.0588 31.2796 31.9009 31.5611 31.6196C31.8426 31.3383 32.0008 30.9567 32.0009 30.5588C32.001 30.1608 31.8431 29.7791 31.5618 29.4976L25.7868 23.722C25.7332 23.6677 25.6756 23.6176 25.6143 23.572V23.5735ZM26.0013 17.8069C26.0013 18.8904 25.788 19.9634 25.3734 20.9644C24.9588 21.9654 24.3511 22.875 23.585 23.6412C22.8189 24.4073 21.9094 25.0151 20.9085 25.4297C19.9075 25.8444 18.8348 26.0578 17.7513 26.0578C16.6679 26.0578 15.5951 25.8444 14.5942 25.4297C13.5933 25.0151 12.6838 24.4073 11.9177 23.6412C11.1516 22.875 10.5439 21.9654 10.1293 20.9644C9.71474 19.9634 9.50135 18.8904 9.50135 17.8069C9.50135 15.6187 10.3705 13.52 11.9177 11.9727C13.4649 10.4254 15.5633 9.55608 17.7513 9.55608C19.9394 9.55608 22.0378 10.4254 23.585 11.9727C25.1322 13.52 26.0013 15.6187 26.0013 17.8069V17.8069Z" fill="#555454"/>
</svg>
